<svg xmlns="http://www.w3.org/2000/svg" width="15.625" height="7.844" viewBox="0 0 15.625 7.844">
  <defs>
    <style>
      .cls-1 {
        fill: #fff;
        fill-rule: evenodd;
      }
    </style>
  </defs>
  <path id="Arrow" class="cls-1" d="M80.411,854.743a0.388,0.388,0,0,0,0-.6l-3.516-3.48a0.352,0.352,0,0,0-.44-0.106,0.386,0.386,0,0,0-.264.387v2.5H65.364a0.382,0.382,0,0,0-.3.141,0.427,0.427,0,0,0-.123.281v1.125a0.42,0.42,0,0,0,.422.422H76.192v2.531a0.386,0.386,0,0,0,.264.387,0.352,0.352,0,0,0,.44-0.106Z" transform="translate(-64.938 -850.531)"/>
</svg>
