<svg xmlns="http://www.w3.org/2000/svg" width="24" height="21" viewBox="0 0 24 21">
  <defs>
    <style>
      .cls-1 {
        fill: #ec244b;
        fill-rule: evenodd;
      }
    </style>
  </defs>
  <path id="Hand" class="cls-1" d="M282.078,343.424a6.065,6.065,0,0,0,.094-1.078A3.663,3.663,0,0,0,281,339.557a4.4,4.4,0,0,0-3.141-1.1,2.334,2.334,0,0,0-1.359.422,3.171,3.171,0,0,0-.891.867q-0.28.447-.7,1.289a12.584,12.584,0,0,1-.609,1.125,12.752,12.752,0,0,1-1.219,1.547,2.847,2.847,0,0,1-1.406,1.125h-0.141a1.5,1.5,0,0,0-1.031-.375h-3a1.534,1.534,0,0,0-1.055.4,1.244,1.244,0,0,0-.445.961V356.6a1.243,1.243,0,0,0,.445.961,1.529,1.529,0,0,0,1.055.4h3a1.492,1.492,0,0,0,1.031-.375h0.141a8.866,8.866,0,0,1,2.414.938,8.271,8.271,0,0,0,3.539.937h0.984a4.7,4.7,0,0,0,3.4-1.195,4.236,4.236,0,0,0,1.289-3.07,4.193,4.193,0,0,0,.75-2.954,2.931,2.931,0,0,0,.375-1.031h1.687a3.732,3.732,0,0,0,1.5-.3,4,4,0,0,0,2.086-2.086,3.9,3.9,0,0,0-3.586-5.391h-4.031Zm-0.234,5.531a1.777,1.777,0,0,1,.445,1.36,2.044,2.044,0,0,1-.68,1.5,1.891,1.891,0,0,1,.164,1.453,1.713,1.713,0,0,1-.773,1.078q0.468,2.859-2.391,2.859h-0.984a4.747,4.747,0,0,1-1.875-.422q-0.984-.422-1.969-0.89A5.825,5.825,0,0,0,272,355.33v-8.25a5.051,5.051,0,0,0,2.766-1.875,12.836,12.836,0,0,0,1.453-1.875c0.156-.25.359-0.616,0.609-1.1s0.453-.859.61-1.125a0.646,0.646,0,0,1,.421-0.4q2.063,0,2.063,1.641a3.78,3.78,0,0,1-.633,1.969,3.732,3.732,0,0,0-.633,1.359h7.453a1.641,1.641,0,0,1,0,3.281h-4.265ZM269,356.08a1.12,1.12,0,1,1,.8-0.328A1.082,1.082,0,0,1,269,356.08Z" transform="translate(-266 -338.469)"/>
</svg>
